<mxfile host="65bd71144e">
    <diagram id="zBbb_w2fufU70cdOGtND" name="1 oldal">
        <mxGraphModel dx="1397" dy="443" grid="1" gridSize="10" guides="1" tooltips="1" connect="1" arrows="1" fold="1" page="0" pageScale="1" pageWidth="660" pageHeight="610" background="none" math="0" shadow="0">
            <root>
                <mxCell id="0"/>
                <mxCell id="1" parent="0"/>
                <mxCell id="6009" value="" style="rounded=0;whiteSpace=wrap;html=1;fillColor=#523E43;fontColor=#FFFFFF;strokeColor=none;container=0;" vertex="1" parent="1">
                    <mxGeometry width="320" height="380" as="geometry"/>
                </mxCell>
                <mxCell id="5985" value="" style="group" vertex="1" connectable="0" parent="1">
                    <mxGeometry x="60" y="10" width="40" height="360" as="geometry"/>
                </mxCell>
                <mxCell id="5947" value="" style="shape=flexArrow;endArrow=classic;html=1;width=60;endSize=16.142857142857142;endWidth=61.142857142857146;strokeColor=none;fillColor=#5E5B61;startWidth=76.3265306122449;startSize=14.045714285714284;" edge="1" parent="5985">
                    <mxGeometry width="50" height="50" relative="1" as="geometry">
                        <mxPoint x="20" as="sourcePoint"/>
                        <mxPoint x="20" y="360" as="targetPoint"/>
                    </mxGeometry>
                </mxCell>
                <mxCell id="5951" value="" style="group" vertex="1" connectable="0" parent="5985">
                    <mxGeometry y="10" width="40" height="40" as="geometry"/>
                </mxCell>
                <mxCell id="5948" value="" style="rounded=0;whiteSpace=wrap;html=1;fillColor=#C23555;strokeColor=none;fontColor=#FFFFFF;" vertex="1" parent="5951">
                    <mxGeometry width="40" height="40" as="geometry"/>
                </mxCell>
                <mxCell id="5950" value="&lt;font face=&quot;Klavika&quot; style=&quot;font-size: 17px;&quot;&gt;ADD&lt;/font&gt;" style="text;html=1;strokeColor=none;fillColor=none;align=center;verticalAlign=middle;whiteSpace=wrap;rounded=0;fontSize=17;fontColor=#FFFFFF;" vertex="1" parent="5951">
                    <mxGeometry y="5" width="40" height="30" as="geometry"/>
                </mxCell>
                <mxCell id="5952" value="FM" style="group" vertex="1" connectable="0" parent="5985">
                    <mxGeometry y="110" width="40" height="40" as="geometry"/>
                </mxCell>
                <mxCell id="5953" value="" style="rounded=0;whiteSpace=wrap;html=1;fillColor=#C23555;strokeColor=none;fontColor=#FFFFFF;" vertex="1" parent="5952">
                    <mxGeometry width="40" height="40" as="geometry"/>
                </mxCell>
                <mxCell id="5954" value="&lt;font face=&quot;Klavika&quot; style=&quot;font-size: 17px;&quot;&gt;FMA&lt;/font&gt;" style="text;html=1;strokeColor=none;fillColor=none;align=center;verticalAlign=middle;whiteSpace=wrap;rounded=0;fontSize=17;fontColor=#FFFFFF;" vertex="1" parent="5952">
                    <mxGeometry y="5" width="40" height="30" as="geometry"/>
                </mxCell>
                <mxCell id="5955" value="FM" style="group" vertex="1" connectable="0" parent="5985">
                    <mxGeometry y="160" width="40" height="40" as="geometry"/>
                </mxCell>
                <mxCell id="5956" value="" style="rounded=0;whiteSpace=wrap;html=1;fillColor=#C23555;strokeColor=none;fontColor=#FFFFFF;" vertex="1" parent="5955">
                    <mxGeometry width="40" height="40" as="geometry"/>
                </mxCell>
                <mxCell id="5957" value="&lt;font face=&quot;Klavika&quot; style=&quot;font-size: 17px;&quot;&gt;FMA&lt;/font&gt;" style="text;html=1;strokeColor=none;fillColor=none;align=center;verticalAlign=middle;whiteSpace=wrap;rounded=0;fontSize=17;fontColor=#FFFFFF;" vertex="1" parent="5955">
                    <mxGeometry y="5" width="40" height="30" as="geometry"/>
                </mxCell>
                <mxCell id="5964" value="FM" style="group" vertex="1" connectable="0" parent="5985">
                    <mxGeometry y="210" width="40" height="40" as="geometry"/>
                </mxCell>
                <mxCell id="5965" value="" style="rounded=0;whiteSpace=wrap;html=1;fillColor=#C23555;strokeColor=none;fontColor=#FFFFFF;" vertex="1" parent="5964">
                    <mxGeometry width="40" height="40" as="geometry"/>
                </mxCell>
                <mxCell id="5966" value="&lt;font face=&quot;Klavika&quot; style=&quot;font-size: 17px;&quot;&gt;FMA&lt;/font&gt;" style="text;html=1;strokeColor=none;fillColor=none;align=center;verticalAlign=middle;whiteSpace=wrap;rounded=0;fontSize=17;fontColor=#FFFFFF;" vertex="1" parent="5964">
                    <mxGeometry y="5" width="40" height="30" as="geometry"/>
                </mxCell>
                <mxCell id="5967" value="FM" style="group" vertex="1" connectable="0" parent="5985">
                    <mxGeometry y="260" width="40" height="40" as="geometry"/>
                </mxCell>
                <mxCell id="5968" value="" style="rounded=0;whiteSpace=wrap;html=1;fillColor=#C23555;strokeColor=none;fontColor=#FFFFFF;" vertex="1" parent="5967">
                    <mxGeometry width="40" height="40" as="geometry"/>
                </mxCell>
                <mxCell id="5969" value="&lt;font face=&quot;Klavika&quot; style=&quot;font-size: 17px;&quot;&gt;FMA&lt;/font&gt;" style="text;html=1;strokeColor=none;fillColor=none;align=center;verticalAlign=middle;whiteSpace=wrap;rounded=0;fontSize=17;fontColor=#FFFFFF;" vertex="1" parent="5967">
                    <mxGeometry y="5" width="40" height="30" as="geometry"/>
                </mxCell>
                <mxCell id="5982" value="" style="group" vertex="1" connectable="0" parent="5985">
                    <mxGeometry y="60" width="40" height="40" as="geometry"/>
                </mxCell>
                <mxCell id="5983" value="" style="rounded=0;whiteSpace=wrap;html=1;fillColor=#C23555;strokeColor=none;fontColor=#FFFFFF;" vertex="1" parent="5982">
                    <mxGeometry width="40" height="40" as="geometry"/>
                </mxCell>
                <mxCell id="5984" value="&lt;font face=&quot;Klavika&quot; style=&quot;font-size: 17px;&quot;&gt;DIV&lt;/font&gt;" style="text;html=1;strokeColor=none;fillColor=none;align=center;verticalAlign=middle;whiteSpace=wrap;rounded=0;fontSize=17;fontColor=#FFFFFF;" vertex="1" parent="5982">
                    <mxGeometry y="5" width="40" height="30" as="geometry"/>
                </mxCell>
                <mxCell id="5986" value="" style="group" vertex="1" connectable="0" parent="1">
                    <mxGeometry x="220" y="10" width="40" height="360" as="geometry"/>
                </mxCell>
                <mxCell id="5987" value="" style="shape=flexArrow;endArrow=classic;html=1;width=60;endSize=16.142857142857142;endWidth=61.142857142857146;strokeColor=none;fillColor=#5E5B61;startWidth=76.3265306122449;startSize=14.045714285714284;" edge="1" parent="5986">
                    <mxGeometry width="50" height="50" relative="1" as="geometry">
                        <mxPoint x="20" as="sourcePoint"/>
                        <mxPoint x="20" y="360" as="targetPoint"/>
                    </mxGeometry>
                </mxCell>
                <mxCell id="5988" value="" style="group" vertex="1" connectable="0" parent="5986">
                    <mxGeometry y="10" width="40" height="40" as="geometry"/>
                </mxCell>
                <mxCell id="5989" value="" style="rounded=0;whiteSpace=wrap;html=1;fillColor=#C23555;strokeColor=none;fontColor=#FFFFFF;" vertex="1" parent="5988">
                    <mxGeometry width="40" height="40" as="geometry"/>
                </mxCell>
                <mxCell id="5990" value="&lt;font face=&quot;Klavika&quot; style=&quot;font-size: 17px;&quot;&gt;ADD&lt;/font&gt;" style="text;html=1;strokeColor=none;fillColor=none;align=center;verticalAlign=middle;whiteSpace=wrap;rounded=0;fontSize=17;fontColor=#FFFFFF;" vertex="1" parent="5988">
                    <mxGeometry y="5" width="40" height="30" as="geometry"/>
                </mxCell>
                <mxCell id="5991" value="FM" style="group" vertex="1" connectable="0" parent="5986">
                    <mxGeometry y="110" width="40" height="40" as="geometry"/>
                </mxCell>
                <mxCell id="5992" value="" style="rounded=0;whiteSpace=wrap;html=1;fillColor=#C23555;strokeColor=none;fontColor=#FFFFFF;" vertex="1" parent="5991">
                    <mxGeometry width="40" height="40" as="geometry"/>
                </mxCell>
                <mxCell id="5993" value="&lt;font face=&quot;Klavika&quot; style=&quot;font-size: 17px;&quot;&gt;FMA&lt;/font&gt;" style="text;html=1;strokeColor=none;fillColor=none;align=center;verticalAlign=middle;whiteSpace=wrap;rounded=0;fontSize=17;fontColor=#FFFFFF;" vertex="1" parent="5991">
                    <mxGeometry y="5" width="40" height="30" as="geometry"/>
                </mxCell>
                <mxCell id="5994" value="FM" style="group" vertex="1" connectable="0" parent="5986">
                    <mxGeometry y="160" width="40" height="40" as="geometry"/>
                </mxCell>
                <mxCell id="5995" value="" style="rounded=0;whiteSpace=wrap;html=1;fillColor=#C23555;strokeColor=none;fontColor=#FFFFFF;" vertex="1" parent="5994">
                    <mxGeometry width="40" height="40" as="geometry"/>
                </mxCell>
                <mxCell id="5996" value="&lt;font face=&quot;Klavika&quot; style=&quot;font-size: 17px;&quot;&gt;FMA&lt;/font&gt;" style="text;html=1;strokeColor=none;fillColor=none;align=center;verticalAlign=middle;whiteSpace=wrap;rounded=0;fontSize=17;fontColor=#FFFFFF;" vertex="1" parent="5994">
                    <mxGeometry y="5" width="40" height="30" as="geometry"/>
                </mxCell>
                <mxCell id="5997" value="FM" style="group" vertex="1" connectable="0" parent="5986">
                    <mxGeometry y="210" width="40" height="40" as="geometry"/>
                </mxCell>
                <mxCell id="5998" value="" style="rounded=0;whiteSpace=wrap;html=1;fillColor=#C23555;strokeColor=none;fontColor=#FFFFFF;" vertex="1" parent="5997">
                    <mxGeometry width="40" height="40" as="geometry"/>
                </mxCell>
                <mxCell id="5999" value="&lt;font face=&quot;Klavika&quot; style=&quot;font-size: 17px;&quot;&gt;FMA&lt;/font&gt;" style="text;html=1;strokeColor=none;fillColor=none;align=center;verticalAlign=middle;whiteSpace=wrap;rounded=0;fontSize=17;fontColor=#FFFFFF;" vertex="1" parent="5997">
                    <mxGeometry y="5" width="40" height="30" as="geometry"/>
                </mxCell>
                <mxCell id="6000" value="FM" style="group" vertex="1" connectable="0" parent="5986">
                    <mxGeometry y="260" width="40" height="40" as="geometry"/>
                </mxCell>
                <mxCell id="6001" value="" style="rounded=0;whiteSpace=wrap;html=1;fillColor=#C23555;strokeColor=none;fontColor=#FFFFFF;" vertex="1" parent="6000">
                    <mxGeometry width="40" height="40" as="geometry"/>
                </mxCell>
                <mxCell id="6002" value="&lt;font face=&quot;Klavika&quot; style=&quot;font-size: 17px;&quot;&gt;FMA&lt;/font&gt;" style="text;html=1;strokeColor=none;fillColor=none;align=center;verticalAlign=middle;whiteSpace=wrap;rounded=0;fontSize=17;fontColor=#FFFFFF;" vertex="1" parent="6000">
                    <mxGeometry y="5" width="40" height="30" as="geometry"/>
                </mxCell>
                <mxCell id="6003" value="" style="group" vertex="1" connectable="0" parent="5986">
                    <mxGeometry y="60" width="40" height="40" as="geometry"/>
                </mxCell>
                <mxCell id="6004" value="" style="rounded=0;whiteSpace=wrap;html=1;fillColor=#C23555;strokeColor=none;fontColor=#FFFFFF;" vertex="1" parent="6003">
                    <mxGeometry width="40" height="40" as="geometry"/>
                </mxCell>
                <mxCell id="6005" value="&lt;font face=&quot;Klavika&quot; style=&quot;font-size: 17px;&quot;&gt;DIV&lt;/font&gt;" style="text;html=1;strokeColor=none;fillColor=none;align=center;verticalAlign=middle;whiteSpace=wrap;rounded=0;fontSize=17;fontColor=#FFFFFF;" vertex="1" parent="6003">
                    <mxGeometry y="5" width="40" height="30" as="geometry"/>
                </mxCell>
                <mxCell id="6006" value="" style="ellipse;whiteSpace=wrap;html=1;aspect=fixed;labelBackgroundColor=default;endArrow=classic;fontSize=11;rounded=1;strokeColor=none;endSize=16.142857142857142;fillColor=#5E5B61;startSize=14.045714285714284;" vertex="1" parent="1">
                    <mxGeometry x="135" y="166" width="10" height="10" as="geometry"/>
                </mxCell>
                <mxCell id="6007" value="" style="ellipse;whiteSpace=wrap;html=1;aspect=fixed;labelBackgroundColor=default;endArrow=classic;fontSize=11;rounded=1;strokeColor=none;endSize=16.142857142857142;fillColor=#5E5B61;startSize=14.045714285714284;" vertex="1" parent="1">
                    <mxGeometry x="155" y="166" width="10" height="10" as="geometry"/>
                </mxCell>
                <mxCell id="6008" value="" style="ellipse;whiteSpace=wrap;html=1;aspect=fixed;labelBackgroundColor=default;endArrow=classic;fontSize=11;rounded=1;strokeColor=none;endSize=16.142857142857142;fillColor=#5E5B61;startSize=14.045714285714284;" vertex="1" parent="1">
                    <mxGeometry x="175" y="166" width="10" height="10" as="geometry"/>
                </mxCell>
            </root>
        </mxGraphModel>
    </diagram>
</mxfile>